<svg id="Capa_1" data-name="Capa 1" xmlns="http://www.w3.org/2000/svg" xmlns:xlink="http://www.w3.org/1999/xlink" viewBox="0 0 64.6 65.41">
<defs>
<style>.cls-1{fill:none;}.cls-2{clip-path:url(#clip-path);}.cls-3{fill:#05337a;}.cls-4{clip-path:url(#clip-path-2);}</style><clipPath id="clip-path" transform="translate(-0.04 0.37)"><rect class="cls-1" x="0.04" width="64.6" height="64.67"/></clipPath><clipPath id="clip-path-2" transform="translate(-0.04 0.37)"><rect class="cls-1" x="10.89" y="61.07" width="1.64" height="3.6"/></clipPath></defs><title>1</title><g class="cls-2"><path class="cls-3" d="M63,33.72a1.61,1.61,0,0,1-.87.87l-.62.26-2.22-6.93,0-.06a2.25,2.25,0,0,0-1.93-1.19,3.24,3.24,0,0,0-2.77,1.45l0,0a5.62,5.62,0,0,0-.67,3.66c.19,1.21.71,4.37.92,5.64A9.43,9.43,0,0,0,54,38h0L41,43.45l-1.51.62-.86.37a2.43,2.43,0,0,0-.18-.58l-3.36-7.52a7.14,7.14,0,0,0,3.76-.54,5.59,5.59,0,0,0,2-1.75c0-.09.11-.17.16-.25a6.18,6.18,0,0,0,.64-1.55.2.2,0,0,0,0-.07h0A5.4,5.4,0,0,0,41.54,29a5.53,5.53,0,0,0-10.18-.9c-.26-.58-.56-1.27-.89-2h0c-.3-.71-.64-1.46-1-2.2l-1.67-3.74a1.93,1.93,0,0,0-.35-.54l10-4.12a1.05,1.05,0,0,0-.09-2A4,4,0,1,1,42.06,7.8a7.2,7.2,0,0,1,.28,3.78,1.14,1.14,0,0,0,1.58,1.22l9.23-3.86L63,32.48A1.62,1.62,0,0,1,63,33.72ZM59.08,46.79a2.18,2.18,0,0,1-.29.64v0s-.38.63-.83,1.31L57.8,49H42.74l-.12-.12h0A6.08,6.08,0,0,1,41,45.07l10.92-4.56c-.23.43-.46.88-.68,1.33l1.37.65c.29-.6.59-1.18.9-1.73a5.18,5.18,0,0,1,1.24-1.44h0a6,6,0,0,1,1.18-.74l.56-.23-.09-.59s0-.29-.12-.72c-.23-1.36-.71-4.31-.89-5.47a4.1,4.1,0,0,1,.46-2.64,1.76,1.76,0,0,1,1.44-.75.69.69,0,0,1,.62.34l2.21,6.92.46,1.45.64,2Zm-.48,3.73.06,3.8a.53.53,0,0,1-.3.09L42,54.54a.46.46,0,0,1-.3-.09l-.06-3.92Zm-22-4.81-7.74,3.47a5.53,5.53,0,0,0-10.71-2.75,5.59,5.59,0,0,0,.12,3.14,7.46,7.46,0,0,0,2.62,3.17l-8.56,3.83L1.69,32.9a1.61,1.61,0,0,1,.82-2.13l.67-.31,2.45,7.66,0,.06a2.21,2.21,0,0,0,1.91,1.19H7.7a3.22,3.22,0,0,0,2.65-1.45v0A5.57,5.57,0,0,0,11,34.24c-.19-1.22-.71-4.38-.92-5.65a7,7,0,0,0,2.48-2.35l11.34-5.06,1.47-.66.14-.07a.65.65,0,0,1,.27-.05.67.67,0,0,1,.24,0,.64.64,0,0,1,.37.35c.66,1.49,1.72,3.84,2.63,5.87h0c.53,1.27,1,2.42,1.33,3.17a1.06,1.06,0,0,0,1.38.57,1,1,0,0,0,.59-.67,4,4,0,1,1,5.9,4.41,7.23,7.23,0,0,1-3.78.38,1.15,1.15,0,0,0-1.06.45s0,0,0,0a1.12,1.12,0,0,0-.11,1.13L37,44.48A.93.93,0,0,1,36.56,45.71ZM23,15.66h0v0l-16.35.13a.49.49,0,0,1-.31-.09v-.15l-.05-3.81a.41.41,0,0,1,.29-.08L23,11.51a.44.44,0,0,1,.3.08l.06,4A.4.4,0,0,1,23,15.66Zm-9.44,8.49-2,.91-.12.22A5.48,5.48,0,0,1,9,27.46l-.55.23.06.39,0,.21s.77,4.65,1,6.18a4,4,0,0,1-.48,2.64,1.73,1.73,0,0,1-1.43.75A.69.69,0,0,1,7,37.53L4.57,29.84,4.1,28.39l-.39-1.21,2.13-7.92a2.23,2.23,0,0,1,.29-.65v0S6.53,18,7,17.28l15.33-.12h0a5.87,5.87,0,0,1,1.4,2.46ZM64.39,31.9,54,7l-10,4.2a7.62,7.62,0,0,0-.52-4.07,5.53,5.53,0,1,0-7.55,7.45L25.26,19a.76.76,0,0,0-.16.06A7.39,7.39,0,0,0,24,16.89a1.93,1.93,0,0,0,.36-.28,1.38,1.38,0,0,0,.42-1h0l-.05-4.07s0-.06,0-.08h.86a.77.77,0,0,0,.76-.76h0l-.14-11-1.51,0,.13,10.28-20.22.16L4.49-.37,3-.35l.14,11.22a.76.76,0,0,0,.76.74h.88a.28.28,0,0,0,0,.09l.06,4.07a1.42,1.42,0,0,0,.6,1.13l-.55.89a3.37,3.37,0,0,0-.48,1.08l0,.1h0L2.14,27.22,2.71,29l-.82.36A3.12,3.12,0,0,0,.31,33.51h0l11.22,25L22,53.87a1.15,1.15,0,0,0,.58-1.52,1.19,1.19,0,0,0-.39-.47,6.68,6.68,0,0,1-2.56-2.8,4,4,0,1,1,7.4.49A1.06,1.06,0,0,0,27.55,51a1.09,1.09,0,0,0,.9,0l8.73-3.92a2.41,2.41,0,0,0,1-.85l1.33-.55a7.47,7.47,0,0,0,1.36,3.47,1.41,1.41,0,0,0-.37.27,1.38,1.38,0,0,0-.42,1l.06,4.07v.08H39.3a.75.75,0,0,0-.75.76h0l.14,9.53,1.51,0-.13-8.76L60.3,56l.13,9,1.51,0-.14-9.7a.76.76,0,0,0-.76-.74h-.87v-.09l-.06-4.06a1.42,1.42,0,0,0-.6-1.13l.55-.89a3.78,3.78,0,0,0,.48-1.09l0-.1h0l2.2-8.26L62,36.3l.74-.31a3.12,3.12,0,0,0,1.68-4.08h0" transform="translate(-0.04 0.37)"/></g><path class="cls-3" d="M15.61,59.64,17,59l1.75,3.39L17.36,63l-1.75-3.39" transform="translate(-0.04 0.37)"/><path class="cls-3" d="M4.72,62.34,6.47,59l1.34.69L6.06,63l-1.34-.69" transform="translate(-0.04 0.37)"/><g class="cls-4"><path class="cls-3" d="M10.91,65l.1-3.81,1.51,0L12.42,65,10.91,65" transform="translate(-0.04 0.37)"/></g><path class="cls-3" d="M47.65,2.48,49,1.79l1.75,3.39-1.34.69L47.65,2.48" transform="translate(-0.04 0.37)"/><path class="cls-3" d="M58.55,5.18l1.74-3.39,1.35.69L59.89,5.87l-1.34-.69" transform="translate(-0.04 0.37)"/><path class="cls-3" d="M53.84,3.6l.1-3.81,1.51,0-.1,3.81-1.51,0" transform="translate(-0.04 0.37)"/></svg>