<svg id="Capa_1" data-name="Capa 1" xmlns="http://www.w3.org/2000/svg" xmlns:xlink="http://www.w3.org/1999/xlink" viewBox="0 0 61.41 63.44"><defs><style>.cls-1{fill:none;}.cls-2{clip-path:url(#clip-path);}.cls-3{fill:#05337a;fill-rule:evenodd;}</style><clipPath id="clip-path" transform="translate(-1.51 -0.56)"><rect class="cls-1" x="1.4" y="0.53" width="61.68" height="63.47"/></clipPath></defs><title>3</title><g class="cls-2"><path class="cls-3" d="M23.07,24.47a12,12,0,0,1,10.91,7V25.33c.33,0,.67,0,1,0s.69,0,1,0v6.18a12,12,0,0,1,10.9-7,11.73,11.73,0,0,1,2,.17A12,12,0,0,1,37,35.6c-.32,0-.63,0-.94,0v3.53c-.69-.19-1.37-.4-2-.62V35.56c-.31,0-.63,0-.95,0a12,12,0,0,1-11.92-11A11.52,11.52,0,0,1,23.07,24.47ZM16.85,60.84,6.48,42.52A.72.72,0,0,0,6,42.16a.83.83,0,0,0-.22,0,.79.79,0,0,0-.37.1l-3.53,2a.78.78,0,0,0-.29,1.06L12,63.6a.78.78,0,0,0,1,.3l3.53-2a.78.78,0,0,0,.36-.47A.76.76,0,0,0,16.85,60.84ZM10.32,44.93l6.78,12,2.55-1.47a1.12,1.12,0,0,1,.82-.11l16,3.53A7.35,7.35,0,0,0,42.42,58L61.88,45.92a3,3,0,0,0,.65-3.78c-1.06-1.77-3.87-1.56-7.51.56l-9.21,5.36a9.15,9.15,0,0,1-6.32,1.11L38.24,49c-.09,0-7.84-2-8.73-2.26a1.08,1.08,0,0,1,.55-2.08c.91.24,6.41,1.8,8.47,2.2A2.35,2.35,0,0,0,41.23,45a2.54,2.54,0,0,0-1.75-3A65,65,0,0,1,29.16,39c-1-.37-1.9-.68-2.66-.93-2.4-.78-4.68.24-6.78,1.46Zm-4.06.51a1.25,1.25,0,1,1-1.43-1.07A1.25,1.25,0,0,1,6.26,45.44ZM35,.56A11.38,11.38,0,1,1,23.61,11.94,11.38,11.38,0,0,1,35,.56ZM38.4,9A3.53,3.53,0,0,0,36,6.87h-.07V6.44a.92.92,0,0,0-1.83,0v.43a3.69,3.69,0,0,0-1.42.69,2.8,2.8,0,0,0-1.07,2.38,2.62,2.62,0,0,0,1.26,2.16,5.5,5.5,0,0,0,2,.71,4.19,4.19,0,0,1,1.44.45,1.06,1.06,0,0,1,.56.82.35.35,0,0,1,0,.12.79.79,0,0,1-.35.67,2.43,2.43,0,0,1-1.14.41l-.3,0a2.35,2.35,0,0,1-1.37-.37,1.48,1.48,0,0,1-.63-.88.91.91,0,0,0-1.77.43,3.3,3.3,0,0,0,1.39,2,4,4,0,0,0,1.37.56v.42a.92.92,0,0,0,1.83,0V17a4.16,4.16,0,0,0,1.72-.72,2.56,2.56,0,0,0,1.06-2.16,2.19,2.19,0,0,0,0-.29,2.83,2.83,0,0,0-1.43-2.17A6,6,0,0,0,35.15,11a3.38,3.38,0,0,1-1.31-.43.88.88,0,0,1-.43-.73,1,1,0,0,1,.4-.88,1.8,1.8,0,0,1,.78-.35,2.18,2.18,0,0,1,.95,0,1.7,1.7,0,0,1,1.17,1A.91.91,0,0,0,38.4,9ZM35,2.23a9.71,9.71,0,1,0,6.87,2.84A9.66,9.66,0,0,0,35,2.23Zm5.43,4.29A7.67,7.67,0,1,0,29.57,17.36,7.67,7.67,0,1,0,40.42,6.52Z" transform="translate(-1.51 -0.56)"/></g></svg>