<svg xmlns="http://www.w3.org/2000/svg" xmlns:xlink="http://www.w3.org/1999/xlink" width="65" zoomAndPan="magnify" viewBox="0 0 48.75 48.75" height="65" preserveAspectRatio="xMidYMid meet" version="1.0"><defs><clipPath id="e3139f59a2"><path d="M 36 0.425781 L 45 0.425781 L 45 9 L 36 9 Z M 36 0.425781 " clip-rule="nonzero"/></clipPath><clipPath id="63171e7f4e"><path d="M 10 0.425781 L 19 0.425781 L 19 9 L 10 9 Z M 10 0.425781 " clip-rule="nonzero"/></clipPath><clipPath id="06cf7e462f"><path d="M 33.75 9.664062 L 48.488281 9.664062 L 48.488281 18.09375 L 33.75 18.09375 Z M 33.75 9.664062 " clip-rule="nonzero"/></clipPath></defs><path fill="#05337a" d="M 42.59375 25.835938 L 41.273438 27.464844 L 39.097656 30.148438 L 39.007812 30.257812 L 37.242188 32.433594 L 34.207031 36.171875 C 33.996094 36.433594 33.675781 36.585938 33.339844 36.585938 L 20.972656 36.585938 C 19.472656 36.585938 18.039062 37.179688 16.980469 38.238281 L 16.777344 38.441406 L 9.941406 31.605469 C 9.945312 31.605469 9.945312 31.601562 9.945312 31.601562 C 9.996094 31.503906 10.046875 31.410156 10.101562 31.316406 C 10.117188 31.285156 10.136719 31.253906 10.152344 31.226562 C 10.191406 31.15625 10.234375 31.089844 10.277344 31.019531 C 10.292969 30.992188 10.3125 30.960938 10.332031 30.933594 C 10.386719 30.847656 10.441406 30.765625 10.5 30.6875 C 10.5 30.683594 10.503906 30.675781 10.507812 30.671875 C 10.511719 30.667969 10.515625 30.664062 10.519531 30.65625 C 10.582031 30.566406 10.648438 30.480469 10.714844 30.390625 C 10.734375 30.367188 10.757812 30.339844 10.777344 30.3125 C 10.828125 30.25 10.878906 30.1875 10.929688 30.125 C 10.953125 30.097656 10.976562 30.074219 11 30.046875 C 11.0625 29.976562 11.125 29.902344 11.1875 29.835938 C 11.199219 29.824219 11.210938 29.808594 11.222656 29.796875 C 11.296875 29.71875 11.375 29.636719 11.457031 29.558594 C 11.476562 29.539062 11.5 29.519531 11.523438 29.496094 C 11.582031 29.4375 11.644531 29.382812 11.703125 29.328125 C 11.730469 29.304688 11.757812 29.28125 11.78125 29.257812 C 11.851562 29.195312 11.921875 29.136719 11.992188 29.078125 C 12.007812 29.0625 12.023438 29.050781 12.039062 29.039062 C 12.125 28.96875 12.214844 28.898438 12.304688 28.832031 C 12.328125 28.816406 12.347656 28.800781 12.371094 28.785156 C 12.441406 28.734375 12.511719 28.683594 12.582031 28.632812 C 12.609375 28.613281 12.636719 28.59375 12.664062 28.578125 C 12.742188 28.523438 12.820312 28.472656 12.898438 28.425781 C 12.917969 28.414062 12.933594 28.402344 12.953125 28.390625 C 13.050781 28.332031 13.148438 28.273438 13.246094 28.21875 C 13.265625 28.207031 13.285156 28.199219 13.304688 28.1875 C 13.386719 28.144531 13.46875 28.101562 13.550781 28.058594 C 13.578125 28.042969 13.605469 28.027344 13.632812 28.015625 C 13.71875 27.972656 13.804688 27.933594 13.890625 27.894531 C 13.90625 27.886719 13.925781 27.875 13.945312 27.867188 C 14.050781 27.820312 14.15625 27.773438 14.265625 27.730469 C 14.269531 27.730469 14.273438 27.730469 14.273438 27.726562 C 14.3125 27.710938 14.351562 27.699219 14.390625 27.683594 C 14.441406 27.664062 14.492188 27.644531 14.542969 27.628906 C 14.617188 27.601562 14.6875 27.578125 14.757812 27.550781 C 14.792969 27.542969 14.828125 27.53125 14.859375 27.519531 C 14.914062 27.503906 14.964844 27.488281 15.019531 27.472656 L 15.128906 27.441406 C 15.179688 27.425781 15.230469 27.414062 15.28125 27.398438 C 15.320312 27.390625 15.355469 27.382812 15.394531 27.371094 C 15.445312 27.359375 15.496094 27.347656 15.546875 27.335938 C 15.582031 27.328125 15.621094 27.320312 15.660156 27.3125 C 15.710938 27.300781 15.765625 27.289062 15.816406 27.28125 C 15.851562 27.273438 15.890625 27.265625 15.925781 27.261719 C 15.980469 27.25 16.035156 27.242188 16.089844 27.234375 C 16.125 27.226562 16.160156 27.222656 16.195312 27.21875 C 16.210938 27.214844 16.226562 27.214844 16.242188 27.210938 C 16.28125 27.207031 16.320312 27.203125 16.359375 27.195312 C 16.398438 27.191406 16.433594 27.1875 16.472656 27.183594 C 16.527344 27.179688 16.582031 27.171875 16.636719 27.167969 C 16.675781 27.164062 16.714844 27.164062 16.75 27.160156 C 16.808594 27.15625 16.871094 27.152344 16.929688 27.148438 C 16.960938 27.148438 16.996094 27.144531 17.027344 27.144531 C 17.113281 27.140625 17.203125 27.140625 17.289062 27.140625 C 17.292969 27.140625 17.300781 27.140625 17.308594 27.140625 C 18.507812 27.140625 19.734375 27.414062 20.902344 28.019531 C 20.992188 28.066406 21.085938 28.109375 21.179688 28.152344 C 21.183594 28.152344 21.1875 28.152344 21.191406 28.15625 C 21.191406 28.15625 21.195312 28.15625 21.195312 28.160156 C 21.390625 28.242188 21.589844 28.3125 21.789062 28.371094 C 22.296875 28.519531 22.828125 28.589844 23.359375 28.589844 L 31.292969 28.589844 C 31.335938 28.589844 31.378906 28.59375 31.417969 28.59375 C 31.429688 28.597656 31.445312 28.597656 31.457031 28.597656 C 31.496094 28.601562 31.539062 28.609375 31.578125 28.617188 C 31.582031 28.617188 31.585938 28.617188 31.589844 28.617188 C 31.628906 28.625 31.667969 28.632812 31.707031 28.644531 C 31.71875 28.648438 31.726562 28.648438 31.738281 28.652344 C 31.78125 28.664062 31.820312 28.675781 31.859375 28.691406 C 31.859375 28.691406 31.863281 28.695312 31.867188 28.695312 C 31.902344 28.710938 31.941406 28.726562 31.976562 28.742188 C 31.984375 28.746094 31.996094 28.75 32.003906 28.753906 C 32.042969 28.773438 32.078125 28.792969 32.113281 28.8125 C 32.117188 28.816406 32.121094 28.816406 32.125 28.820312 C 32.15625 28.839844 32.1875 28.859375 32.222656 28.882812 C 32.230469 28.886719 32.238281 28.894531 32.246094 28.898438 C 32.28125 28.925781 32.3125 28.949219 32.34375 28.976562 C 32.347656 28.980469 32.351562 28.980469 32.351562 28.984375 C 32.382812 29.007812 32.410156 29.035156 32.4375 29.0625 C 32.445312 29.070312 32.453125 29.078125 32.460938 29.085938 C 32.488281 29.113281 32.515625 29.144531 32.539062 29.175781 C 32.542969 29.179688 32.546875 29.183594 32.550781 29.1875 C 32.566406 29.207031 32.582031 29.226562 32.59375 29.246094 C 32.601562 29.257812 32.609375 29.265625 32.613281 29.277344 C 32.621094 29.285156 32.628906 29.292969 32.632812 29.304688 C 32.65625 29.339844 32.675781 29.375 32.695312 29.410156 C 32.699219 29.410156 32.699219 29.414062 32.699219 29.417969 C 32.71875 29.453125 32.738281 29.488281 32.75 29.523438 C 32.757812 29.53125 32.761719 29.542969 32.765625 29.550781 C 32.78125 29.589844 32.796875 29.632812 32.808594 29.671875 C 32.820312 29.710938 32.832031 29.753906 32.839844 29.796875 C 32.839844 29.808594 32.84375 29.816406 32.84375 29.824219 C 32.851562 29.871094 32.859375 29.914062 32.863281 29.957031 C 32.875 30.058594 32.875 30.160156 32.863281 30.257812 C 32.828125 30.617188 32.667969 30.941406 32.421875 31.183594 C 32.148438 31.457031 31.773438 31.621094 31.355469 31.621094 L 23.636719 31.621094 C 23.402344 31.621094 23.1875 31.707031 23.023438 31.84375 C 22.84375 31.988281 22.722656 32.195312 22.683594 32.433594 C 22.675781 32.484375 22.671875 32.535156 22.671875 32.585938 C 22.671875 32.625 22.671875 32.660156 22.675781 32.695312 C 22.679688 32.707031 22.679688 32.714844 22.679688 32.726562 C 22.683594 32.75 22.6875 32.773438 22.695312 32.796875 C 22.695312 32.808594 22.699219 32.820312 22.703125 32.835938 C 22.707031 32.855469 22.714844 32.875 22.722656 32.898438 C 22.726562 32.910156 22.730469 32.921875 22.734375 32.933594 C 22.742188 32.953125 22.75 32.972656 22.761719 32.992188 C 22.765625 33.003906 22.773438 33.015625 22.777344 33.027344 C 22.789062 33.046875 22.800781 33.066406 22.808594 33.085938 C 22.816406 33.09375 22.820312 33.105469 22.828125 33.113281 C 22.84375 33.136719 22.859375 33.15625 22.875 33.179688 C 22.878906 33.183594 22.882812 33.191406 22.886719 33.195312 C 22.910156 33.222656 22.929688 33.246094 22.957031 33.273438 C 22.980469 33.296875 23.003906 33.316406 23.03125 33.339844 C 23.046875 33.351562 23.0625 33.363281 23.078125 33.375 C 23.085938 33.378906 23.089844 33.382812 23.097656 33.390625 C 23.121094 33.40625 23.148438 33.417969 23.171875 33.433594 C 23.179688 33.4375 23.1875 33.441406 23.195312 33.445312 C 23.214844 33.457031 23.230469 33.464844 23.25 33.472656 C 23.261719 33.476562 23.269531 33.480469 23.28125 33.484375 C 23.296875 33.492188 23.316406 33.496094 23.332031 33.503906 C 23.34375 33.507812 23.355469 33.511719 23.367188 33.515625 C 23.382812 33.519531 23.402344 33.523438 23.417969 33.527344 C 23.429688 33.53125 23.441406 33.53125 23.453125 33.535156 C 23.472656 33.539062 23.492188 33.542969 23.511719 33.542969 C 23.523438 33.546875 23.535156 33.546875 23.542969 33.546875 C 23.570312 33.550781 23.601562 33.554688 23.632812 33.554688 L 31.296875 33.554688 C 31.410156 33.554688 31.523438 33.546875 31.636719 33.539062 C 31.878906 33.519531 32.117188 33.476562 32.351562 33.40625 C 32.453125 33.375 32.554688 33.339844 32.652344 33.296875 C 32.664062 33.296875 32.671875 33.289062 32.679688 33.285156 C 32.71875 33.269531 32.757812 33.253906 32.796875 33.234375 C 32.808594 33.230469 32.824219 33.222656 32.835938 33.214844 C 32.871094 33.199219 32.902344 33.183594 32.933594 33.167969 C 32.949219 33.160156 32.964844 33.152344 32.980469 33.144531 C 33.011719 33.128906 33.039062 33.113281 33.070312 33.09375 C 33.085938 33.085938 33.101562 33.074219 33.117188 33.066406 C 33.144531 33.050781 33.171875 33.035156 33.199219 33.015625 C 33.214844 33.007812 33.234375 32.996094 33.25 32.984375 C 33.273438 32.96875 33.300781 32.953125 33.324219 32.933594 C 33.34375 32.921875 33.359375 32.910156 33.375 32.898438 C 33.398438 32.878906 33.421875 32.863281 33.445312 32.847656 C 33.460938 32.832031 33.480469 32.820312 33.496094 32.808594 C 33.519531 32.789062 33.539062 32.773438 33.5625 32.753906 C 33.578125 32.738281 33.59375 32.726562 33.613281 32.710938 C 33.632812 32.695312 33.652344 32.675781 33.671875 32.65625 C 33.6875 32.644531 33.707031 32.625 33.722656 32.609375 C 33.742188 32.59375 33.761719 32.574219 33.78125 32.558594 C 33.796875 32.539062 33.8125 32.523438 33.828125 32.507812 C 33.84375 32.488281 33.863281 32.472656 33.882812 32.453125 C 33.886719 32.445312 33.890625 32.4375 33.898438 32.433594 C 33.910156 32.421875 33.917969 32.410156 33.925781 32.402344 C 33.945312 32.382812 33.960938 32.363281 33.976562 32.34375 C 33.992188 32.324219 34.007812 32.308594 34.023438 32.289062 C 34.039062 32.269531 34.054688 32.25 34.070312 32.230469 C 34.082031 32.210938 34.097656 32.195312 34.113281 32.175781 C 34.125 32.15625 34.140625 32.136719 34.15625 32.117188 C 34.167969 32.097656 34.183594 32.078125 34.195312 32.058594 C 34.210938 32.035156 34.222656 32.015625 34.238281 31.996094 C 34.25 31.976562 34.261719 31.957031 34.277344 31.933594 C 34.289062 31.914062 34.300781 31.894531 34.3125 31.875 C 34.324219 31.855469 34.335938 31.832031 34.347656 31.8125 C 34.359375 31.792969 34.371094 31.773438 34.382812 31.75 C 34.394531 31.730469 34.40625 31.707031 34.417969 31.683594 C 34.429688 31.664062 34.4375 31.644531 34.449219 31.625 C 34.460938 31.601562 34.46875 31.578125 34.480469 31.554688 C 34.492188 31.535156 34.5 31.515625 34.507812 31.492188 C 34.519531 31.472656 34.527344 31.449219 34.539062 31.425781 C 34.546875 31.402344 34.554688 31.382812 34.5625 31.363281 C 34.574219 31.339844 34.582031 31.316406 34.589844 31.292969 C 34.597656 31.269531 34.605469 31.25 34.613281 31.226562 C 34.621094 31.203125 34.628906 31.179688 34.636719 31.15625 C 34.644531 31.132812 34.648438 31.113281 34.65625 31.09375 C 34.664062 31.066406 34.671875 31.042969 34.675781 31.019531 C 34.683594 30.996094 34.6875 30.976562 34.695312 30.953125 C 34.699219 30.929688 34.707031 30.902344 34.710938 30.878906 C 34.71875 30.859375 34.722656 30.835938 34.726562 30.8125 C 34.730469 30.789062 34.738281 30.765625 34.742188 30.738281 C 34.746094 30.71875 34.75 30.695312 34.753906 30.671875 C 34.757812 30.648438 34.761719 30.625 34.765625 30.597656 C 34.769531 30.574219 34.773438 30.554688 34.773438 30.53125 C 34.777344 30.503906 34.78125 30.480469 34.78125 30.457031 C 34.785156 30.433594 34.785156 30.410156 34.789062 30.386719 C 34.792969 30.363281 34.792969 30.335938 34.792969 30.3125 C 34.796875 30.289062 34.796875 30.265625 34.796875 30.242188 C 34.800781 30.21875 34.800781 30.195312 34.800781 30.167969 C 34.800781 30.144531 34.800781 30.121094 34.800781 30.097656 C 34.800781 30.074219 34.800781 30.046875 34.800781 30.023438 C 34.800781 30 34.796875 29.976562 34.796875 29.953125 C 34.796875 29.929688 34.796875 29.902344 34.792969 29.878906 C 34.792969 29.84375 34.789062 29.808594 34.785156 29.773438 C 34.78125 29.707031 34.769531 29.644531 34.761719 29.578125 C 34.742188 29.46875 34.71875 29.363281 34.691406 29.257812 L 37.375 26.664062 L 39.097656 25.003906 L 40.453125 23.691406 C 40.589844 23.554688 40.75 23.449219 40.917969 23.375 C 40.921875 23.375 40.921875 23.375 40.921875 23.375 C 40.949219 23.363281 40.976562 23.351562 41.003906 23.339844 C 41.035156 23.328125 41.0625 23.320312 41.09375 23.3125 C 41.234375 23.269531 41.378906 23.25 41.523438 23.25 C 41.535156 23.25 41.550781 23.25 41.5625 23.25 C 41.644531 23.253906 41.730469 23.261719 41.8125 23.277344 C 41.820312 23.277344 41.828125 23.28125 41.835938 23.28125 C 42.042969 23.324219 42.242188 23.414062 42.417969 23.542969 C 42.480469 23.589844 42.539062 23.636719 42.59375 23.691406 C 42.890625 23.988281 43.039062 24.375 43.039062 24.761719 C 43.039062 25.152344 42.890625 25.539062 42.59375 25.835938 Z M 16.039062 41.257812 C 16.027344 41.308594 16.015625 41.359375 15.996094 41.410156 C 15.980469 41.460938 15.960938 41.511719 15.9375 41.558594 C 15.898438 41.640625 15.851562 41.71875 15.792969 41.789062 C 15.761719 41.832031 15.726562 41.875 15.6875 41.914062 L 11.855469 45.746094 L 2.34375 36.234375 L 6.171875 32.402344 C 6.355469 32.222656 6.574219 32.105469 6.808594 32.054688 C 6.820312 32.050781 6.832031 32.050781 6.84375 32.046875 C 6.855469 32.042969 6.863281 32.042969 6.875 32.042969 C 6.945312 32.03125 7.019531 32.023438 7.089844 32.023438 C 7.339844 32.023438 7.589844 32.09375 7.804688 32.238281 C 7.878906 32.285156 7.945312 32.339844 8.007812 32.402344 L 15.6875 40.078125 C 15.796875 40.191406 15.882812 40.316406 15.945312 40.449219 C 15.972656 40.507812 15.996094 40.566406 16.011719 40.628906 C 16.046875 40.746094 16.066406 40.871094 16.066406 40.996094 C 16.066406 41.082031 16.058594 41.171875 16.039062 41.257812 Z M 43.953125 22.320312 C 43.3125 21.675781 42.445312 21.320312 41.523438 21.320312 C 41.441406 21.320312 41.355469 21.324219 41.273438 21.328125 C 40.503906 21.382812 39.785156 21.6875 39.214844 22.207031 C 39.175781 22.242188 39.136719 22.277344 39.101562 22.3125 L 39.097656 22.320312 L 36.003906 25.308594 L 33.660156 27.570312 C 33.027344 27.007812 32.191406 26.660156 31.289062 26.660156 L 23.324219 26.660156 C 22.898438 26.660156 22.488281 26.585938 22.117188 26.449219 C 22.003906 26.40625 21.894531 26.359375 21.789062 26.304688 C 20.386719 25.578125 18.878906 25.210938 17.308594 25.210938 C 16.539062 25.210938 15.777344 25.296875 15.03125 25.472656 C 14.414062 25.617188 13.804688 25.816406 13.222656 26.074219 C 13.039062 26.152344 12.859375 26.238281 12.683594 26.328125 C 11.902344 26.722656 11.171875 27.21875 10.507812 27.804688 C 10.285156 28 10.070312 28.207031 9.863281 28.421875 C 9.285156 29.023438 8.804688 29.683594 8.410156 30.375 C 8 30.191406 7.554688 30.09375 7.089844 30.09375 C 6.226562 30.09375 5.417969 30.429688 4.808594 31.039062 L 0.503906 35.34375 C 0.0117188 35.832031 0.0117188 36.628906 0.503906 37.125 L 10.964844 47.585938 C 11.457031 48.074219 12.257812 48.074219 12.746094 47.585938 L 17.050781 43.28125 C 17.917969 42.414062 18.1875 41.183594 17.863281 40.085938 L 18.144531 39.808594 C 18.96875 38.980469 20.089844 38.515625 21.257812 38.515625 L 33.339844 38.515625 C 34.257812 38.515625 35.128906 38.101562 35.703125 37.386719 L 39.726562 32.433594 L 41.273438 30.527344 L 44.039062 27.117188 C 44.640625 26.476562 44.96875 25.648438 44.96875 24.761719 C 44.96875 23.835938 44.605469 22.96875 43.953125 22.320312 " fill-opacity="1" fill-rule="nonzero"/><path fill="#05337a" d="M 7.230469 34.378906 C 6.621094 34.378906 6.125 34.875 6.125 35.484375 C 6.125 36.09375 6.621094 36.585938 7.230469 36.585938 C 7.839844 36.585938 8.332031 36.09375 8.332031 35.484375 C 8.332031 34.875 7.839844 34.378906 7.230469 34.378906 " fill-opacity="1" fill-rule="nonzero"/><g clip-path="url(#e3139f59a2)"><path fill="#05337a" d="M 44.511719 4.609375 C 44.511719 6.921875 42.636719 8.792969 40.324219 8.792969 C 38.015625 8.792969 36.140625 6.921875 36.140625 4.609375 C 36.140625 2.296875 38.015625 0.425781 40.324219 0.425781 C 42.636719 0.425781 44.511719 2.296875 44.511719 4.609375 " fill-opacity="1" fill-rule="nonzero"/></g><g clip-path="url(#63171e7f4e)"><path fill="#05337a" d="M 18.683594 4.609375 C 18.683594 6.921875 16.808594 8.792969 14.496094 8.792969 C 12.1875 8.792969 10.3125 6.921875 10.3125 4.609375 C 10.3125 2.296875 12.1875 0.425781 14.496094 0.425781 C 16.808594 0.425781 18.683594 2.296875 18.683594 4.609375 " fill-opacity="1" fill-rule="nonzero"/></g><g clip-path="url(#06cf7e462f)"><path fill="#05337a" d="M 42.613281 9.753906 L 38.039062 9.753906 C 36.601562 9.753906 35.285156 10.277344 34.261719 11.140625 C 33.65625 11.648438 33.707031 12.589844 34.363281 13.027344 C 34.792969 13.316406 35.199219 13.648438 35.574219 14.023438 C 36.480469 14.929688 37.140625 16.015625 37.519531 17.195312 C 37.675781 17.683594 38.128906 18.015625 38.640625 18.015625 L 46.105469 18.015625 C 47.417969 18.015625 48.488281 16.941406 48.488281 15.632812 C 48.488281 12.398438 45.84375 9.753906 42.613281 9.753906 " fill-opacity="1" fill-rule="nonzero"/></g><path fill="#05337a" d="M 20.460938 13.027344 C 21.113281 12.589844 21.164062 11.648438 20.5625 11.140625 C 19.539062 10.277344 18.21875 9.753906 16.785156 9.753906 L 12.210938 9.753906 C 8.976562 9.753906 6.332031 12.398438 6.332031 15.632812 C 6.332031 16.941406 7.40625 18.015625 8.714844 18.015625 L 16.179688 18.015625 C 16.691406 18.015625 17.148438 17.683594 17.304688 17.195312 C 17.683594 16.015625 18.34375 14.929688 19.25 14.023438 C 19.625 13.648438 20.027344 13.316406 20.460938 13.027344 " fill-opacity="1" fill-rule="nonzero"/><path fill="#05337a" d="M 29.988281 12.980469 L 24.832031 12.980469 C 21.1875 12.980469 18.207031 15.960938 18.207031 19.605469 C 18.207031 21.082031 19.417969 22.292969 20.894531 22.292969 L 33.929688 22.292969 C 35.40625 22.292969 36.613281 21.082031 36.613281 19.605469 C 36.613281 15.960938 33.632812 12.980469 29.988281 12.980469 " fill-opacity="1" fill-rule="nonzero"/><path fill="#05337a" d="M 32.128906 7.179688 C 32.128906 9.785156 30.015625 11.898438 27.410156 11.898438 C 24.804688 11.898438 22.691406 9.785156 22.691406 7.179688 C 22.691406 4.574219 24.804688 2.464844 27.410156 2.464844 C 30.015625 2.464844 32.128906 4.574219 32.128906 7.179688 " fill-opacity="1" fill-rule="nonzero"/></svg>