<svg xmlns="http://www.w3.org/2000/svg" xmlns:xlink="http://www.w3.org/1999/xlink" width="65" zoomAndPan="magnify" viewBox="0 0 48.75 48.75" height="65" preserveAspectRatio="xMidYMid meet" version="1.0"><defs><clipPath id="bce9a93eba"><path d="M 30 16 L 48.5 16 L 48.5 38 L 30 38 Z M 30 16 " clip-rule="nonzero"/></clipPath><clipPath id="ac425ecdeb"><path d="M 35 19 L 48.5 19 L 48.5 30 L 35 30 Z M 35 19 " clip-rule="nonzero"/></clipPath><clipPath id="4cd995d3f9"><path d="M 34 31 L 46 31 L 46 42.6875 L 34 42.6875 Z M 34 31 " clip-rule="nonzero"/></clipPath><clipPath id="c7a6f980e1"><path d="M 4 31 L 16 31 L 16 42.6875 L 4 42.6875 Z M 4 31 " clip-rule="nonzero"/></clipPath><clipPath id="eab2fc9c5d"><path d="M 44 30 L 48.5 30 L 48.5 33 L 44 33 Z M 44 30 " clip-rule="nonzero"/></clipPath><clipPath id="330a765db4"><path d="M 10 6.125 L 23 6.125 L 23 19 L 10 19 Z M 10 6.125 " clip-rule="nonzero"/></clipPath><clipPath id="36fb1c3fd5"><path d="M 13 6.125 L 19 6.125 L 19 12 L 13 12 Z M 13 6.125 " clip-rule="nonzero"/></clipPath></defs><path fill="#05337a" d="M 31.636719 37.910156 L 14.40625 37.910156 C 13.988281 37.910156 13.648438 37.570312 13.648438 37.152344 C 13.648438 36.734375 13.988281 36.394531 14.40625 36.394531 L 31.636719 36.394531 C 32.054688 36.394531 32.394531 36.734375 32.394531 37.152344 C 32.394531 37.570312 32.054688 37.910156 31.636719 37.910156 Z M 31.636719 37.910156 " fill-opacity="1" fill-rule="evenodd"/><g clip-path="url(#bce9a93eba)"><path fill="#05337a" d="M 47.753906 37.910156 L 44.292969 37.910156 C 43.871094 37.910156 43.53125 37.570312 43.53125 37.152344 C 43.53125 36.734375 43.871094 36.394531 44.292969 36.394531 L 46.996094 36.394531 L 46.996094 28.699219 L 41.199219 18.761719 C 40.863281 18.1875 40.242188 17.832031 39.578125 17.832031 L 32.828125 17.832031 C 32.589844 17.832031 32.394531 18.027344 32.394531 18.265625 L 32.394531 36.394531 L 35.394531 36.394531 C 35.8125 36.394531 36.152344 36.734375 36.152344 37.152344 C 36.152344 37.570312 35.8125 37.910156 35.394531 37.910156 L 31.636719 37.910156 C 31.21875 37.910156 30.878906 37.570312 30.878906 37.152344 L 30.878906 18.265625 C 30.878906 17.191406 31.753906 16.316406 32.828125 16.316406 L 39.578125 16.316406 C 40.78125 16.316406 41.902344 16.960938 42.507812 18 L 48.410156 28.113281 C 48.476562 28.226562 48.511719 28.359375 48.511719 28.492188 L 48.511719 37.152344 C 48.511719 37.570312 48.171875 37.910156 47.753906 37.910156 Z M 47.753906 37.910156 " fill-opacity="1" fill-rule="evenodd"/></g><g clip-path="url(#ac425ecdeb)"><path fill="#05337a" d="M 47.753906 29.25 L 35.976562 29.25 C 35.558594 29.25 35.21875 28.914062 35.21875 28.492188 L 35.21875 20.578125 C 35.21875 20.160156 35.558594 19.820312 35.976562 19.820312 L 43.136719 19.820312 C 43.554688 19.820312 43.894531 20.160156 43.894531 20.578125 C 43.894531 20.996094 43.554688 21.335938 43.136719 21.335938 L 36.734375 21.335938 L 36.734375 27.734375 L 47.753906 27.734375 C 48.171875 27.734375 48.511719 28.074219 48.511719 28.492188 C 48.511719 28.914062 48.171875 29.25 47.753906 29.25 Z M 47.753906 29.25 " fill-opacity="1" fill-rule="evenodd"/></g><g clip-path="url(#4cd995d3f9)"><path fill="#05337a" d="M 39.84375 42.359375 C 36.972656 42.359375 34.636719 40.023438 34.636719 37.152344 C 34.636719 34.28125 36.972656 31.945312 39.84375 31.945312 C 42.714844 31.945312 45.050781 34.28125 45.050781 37.152344 C 45.050781 40.023438 42.714844 42.359375 39.84375 42.359375 Z M 39.84375 33.460938 C 37.808594 33.460938 36.152344 35.117188 36.152344 37.152344 C 36.152344 39.1875 37.808594 40.84375 39.84375 40.84375 C 41.878906 40.84375 43.53125 39.1875 43.53125 37.152344 C 43.53125 35.117188 41.878906 33.460938 39.84375 33.460938 Z M 39.84375 33.460938 " fill-opacity="1" fill-rule="evenodd"/></g><path fill="#05337a" d="M 39.84375 39.40625 C 38.597656 39.40625 37.585938 38.394531 37.585938 37.152344 C 37.585938 35.90625 38.597656 34.894531 39.84375 34.894531 C 41.085938 34.894531 42.097656 35.90625 42.097656 37.152344 C 42.097656 38.394531 41.085938 39.40625 39.84375 39.40625 Z M 39.84375 36.410156 C 39.433594 36.410156 39.101562 36.742188 39.101562 37.152344 C 39.101562 37.558594 39.433594 37.890625 39.84375 37.890625 C 40.25 37.890625 40.582031 37.558594 40.582031 37.152344 C 40.582031 36.742188 40.25 36.410156 39.84375 36.410156 Z M 39.84375 36.410156 " fill-opacity="1" fill-rule="evenodd"/><g clip-path="url(#c7a6f980e1)"><path fill="#05337a" d="M 9.957031 42.359375 C 7.085938 42.359375 4.75 40.023438 4.75 37.152344 C 4.75 34.28125 7.085938 31.945312 9.957031 31.945312 C 12.828125 31.945312 15.164062 34.28125 15.164062 37.152344 C 15.164062 40.023438 12.828125 42.359375 9.957031 42.359375 Z M 9.957031 33.460938 C 7.921875 33.460938 6.269531 35.117188 6.269531 37.152344 C 6.269531 39.1875 7.921875 40.84375 9.957031 40.84375 C 11.992188 40.84375 13.648438 39.1875 13.648438 37.152344 C 13.648438 35.117188 11.992188 33.460938 9.957031 33.460938 Z M 9.957031 33.460938 " fill-opacity="1" fill-rule="evenodd"/></g><path fill="#05337a" d="M 9.957031 39.40625 C 8.714844 39.40625 7.703125 38.394531 7.703125 37.152344 C 7.703125 35.90625 8.714844 34.894531 9.957031 34.894531 C 11.203125 34.894531 12.214844 35.90625 12.214844 37.152344 C 12.214844 38.394531 11.203125 39.40625 9.957031 39.40625 Z M 9.957031 36.410156 C 9.550781 36.410156 9.21875 36.742188 9.21875 37.152344 C 9.21875 37.558594 9.550781 37.890625 9.957031 37.890625 C 10.367188 37.890625 10.699219 37.558594 10.699219 37.152344 C 10.699219 36.742188 10.367188 36.410156 9.957031 36.410156 Z M 9.957031 36.410156 " fill-opacity="1" fill-rule="evenodd"/><path fill="#05337a" d="M 5.507812 37.910156 L 1.8125 37.910156 C 0.816406 37.910156 0.00390625 37.097656 0.00390625 36.101562 L 0.00390625 28.210938 C 0.00390625 27.792969 0.34375 27.453125 0.761719 27.453125 L 31.636719 27.453125 C 32.054688 27.453125 32.394531 27.792969 32.394531 28.210938 C 32.394531 28.628906 32.054688 28.96875 31.636719 28.96875 L 1.519531 28.96875 L 1.519531 36.101562 C 1.519531 36.261719 1.652344 36.394531 1.8125 36.394531 L 5.507812 36.394531 C 5.929688 36.394531 6.265625 36.734375 6.265625 37.152344 C 6.265625 37.570312 5.929688 37.910156 5.507812 37.910156 Z M 5.507812 37.910156 " fill-opacity="1" fill-rule="evenodd"/><g clip-path="url(#eab2fc9c5d)"><path fill="#05337a" d="M 47.753906 32.1875 L 45.480469 32.1875 C 45.0625 32.1875 44.722656 31.847656 44.722656 31.425781 C 44.722656 31.007812 45.0625 30.667969 45.480469 30.667969 L 47.753906 30.667969 C 48.171875 30.667969 48.511719 31.007812 48.511719 31.425781 C 48.511719 31.847656 48.171875 32.1875 47.753906 32.1875 Z M 47.753906 32.1875 " fill-opacity="1" fill-rule="evenodd"/></g><path fill="#05337a" d="M 16.199219 28.96875 L 5.546875 28.96875 C 5.128906 28.96875 4.789062 28.628906 4.789062 28.210938 L 4.789062 17.558594 C 4.789062 17.140625 5.128906 16.800781 5.546875 16.800781 L 16.199219 16.800781 C 16.617188 16.800781 16.957031 17.140625 16.957031 17.558594 C 16.957031 17.976562 16.617188 18.316406 16.199219 18.316406 L 6.304688 18.316406 L 6.304688 27.453125 L 16.199219 27.453125 C 16.617188 27.453125 16.957031 27.792969 16.957031 28.210938 C 16.957031 28.628906 16.617188 28.96875 16.199219 28.96875 Z M 16.199219 28.96875 " fill-opacity="1" fill-rule="evenodd"/><path fill="#05337a" d="M 12.59375 21.753906 C 12.433594 21.753906 12.277344 21.707031 12.144531 21.609375 L 10.875 20.671875 L 9.601562 21.609375 C 9.371094 21.777344 9.066406 21.804688 8.8125 21.675781 C 8.554688 21.546875 8.394531 21.285156 8.394531 20.996094 L 8.394531 17.558594 C 8.394531 17.140625 8.734375 16.800781 9.152344 16.800781 C 9.570312 16.800781 9.910156 17.140625 9.910156 17.558594 L 9.910156 19.496094 L 10.421875 19.121094 C 10.691406 18.921875 11.054688 18.921875 11.324219 19.121094 L 11.835938 19.496094 L 11.835938 17.558594 C 11.835938 17.140625 12.175781 16.800781 12.59375 16.800781 C 13.011719 16.800781 13.351562 17.140625 13.351562 17.558594 L 13.351562 20.996094 C 13.351562 21.285156 13.191406 21.546875 12.933594 21.675781 C 12.828125 21.730469 12.710938 21.753906 12.59375 21.753906 Z M 12.59375 21.753906 " fill-opacity="1" fill-rule="evenodd"/><path fill="#05337a" d="M 26.851562 28.96875 L 16.199219 28.96875 C 15.78125 28.96875 15.441406 28.628906 15.441406 28.210938 L 15.441406 17.558594 C 15.441406 17.140625 15.78125 16.800781 16.199219 16.800781 L 26.851562 16.800781 C 27.269531 16.800781 27.609375 17.140625 27.609375 17.558594 L 27.609375 28.210938 C 27.609375 28.628906 27.269531 28.96875 26.851562 28.96875 Z M 16.957031 27.453125 L 26.09375 27.453125 L 26.09375 18.316406 L 16.957031 18.316406 Z M 16.957031 27.453125 " fill-opacity="1" fill-rule="evenodd"/><path fill="#05337a" d="M 23.246094 21.753906 C 23.085938 21.753906 22.929688 21.707031 22.796875 21.609375 L 21.527344 20.671875 L 20.253906 21.609375 C 20.027344 21.777344 19.71875 21.804688 19.464844 21.675781 C 19.210938 21.546875 19.046875 21.285156 19.046875 20.996094 L 19.046875 17.558594 C 19.046875 17.140625 19.386719 16.800781 19.804688 16.800781 C 20.226562 16.800781 20.5625 17.140625 20.5625 17.558594 L 20.5625 19.496094 L 21.078125 19.121094 C 21.34375 18.921875 21.707031 18.921875 21.976562 19.121094 L 22.488281 19.496094 L 22.488281 17.558594 C 22.488281 17.140625 22.828125 16.800781 23.246094 16.800781 C 23.664062 16.800781 24.003906 17.140625 24.003906 17.558594 L 24.003906 20.996094 C 24.003906 21.285156 23.84375 21.546875 23.585938 21.675781 C 23.480469 21.730469 23.363281 21.753906 23.246094 21.753906 Z M 23.246094 21.753906 " fill-opacity="1" fill-rule="evenodd"/><g clip-path="url(#330a765db4)"><path fill="#05337a" d="M 21.527344 18.316406 C 21.109375 18.316406 20.769531 17.976562 20.769531 17.558594 L 20.769531 7.664062 L 11.632812 7.664062 L 11.632812 17.558594 C 11.632812 17.976562 11.292969 18.316406 10.875 18.316406 C 10.453125 18.316406 10.117188 17.976562 10.117188 17.558594 L 10.117188 6.90625 C 10.117188 6.484375 10.453125 6.148438 10.875 6.148438 L 21.527344 6.148438 C 21.945312 6.148438 22.285156 6.484375 22.285156 6.90625 L 22.285156 17.558594 C 22.285156 17.976562 21.945312 18.316406 21.527344 18.316406 Z M 21.527344 18.316406 " fill-opacity="1" fill-rule="evenodd"/></g><g clip-path="url(#36fb1c3fd5)"><path fill="#05337a" d="M 17.917969 11.101562 C 17.761719 11.101562 17.601562 11.054688 17.46875 10.957031 L 16.199219 10.019531 L 14.929688 10.957031 C 14.699219 11.125 14.394531 11.152344 14.136719 11.023438 C 13.882812 10.894531 13.722656 10.632812 13.722656 10.34375 L 13.722656 6.90625 C 13.722656 6.488281 14.0625 6.148438 14.480469 6.148438 C 14.898438 6.148438 15.238281 6.488281 15.238281 6.90625 L 15.238281 8.84375 L 15.75 8.46875 C 16.015625 8.269531 16.382812 8.269531 16.648438 8.46875 L 17.160156 8.84375 L 17.160156 6.90625 C 17.160156 6.488281 17.5 6.148438 17.917969 6.148438 C 18.339844 6.148438 18.675781 6.488281 18.675781 6.90625 L 18.675781 10.34375 C 18.675781 10.632812 18.515625 10.894531 18.261719 11.023438 C 18.152344 11.074219 18.035156 11.101562 17.917969 11.101562 Z M 17.917969 11.101562 " fill-opacity="1" fill-rule="evenodd"/></g></svg>